# xmcd CD database file
#
# Track frame offsets:
#	150
#	18669
#	35808
#	51215
#	74484
#	93597
#	111434
#	129598
#	150123
#	163647
#	177941
#	190386
#	212163
#	233134
#
# Disc length: 3483 seconds
#
# Revision: 0
# Processed by: cddbd v1.5.2PL0 Copyright (c) Steve Scherf et al.
# Submitted via: CDex 1.51
#
DISCID=c70d990e
DTITLE=Hot Club Sandwich - Live on the Verandah
DYEAR=2003
DGENRE=Jazz
TTITLE0=Route 66
TTITLE1=It's Almost Like Being In Love
TTITLE2=You Gotta Dance With Who Brung You
TTITLE3=Room With A View
TTITLE4=Don't Let Go
TTITLE5=Autumn Leaves
TTITLE6=Feet Back On The Ground
TTITLE7=You Can Love Yourself
TTITLE8=After You've Gone
TTITLE9=Choo Choo Ch'Boogie
TTITLE10=It Don't Mean A Thing If It Ain't Got That Swing
TTITLE11=Blow Wind Blow
TTITLE12=Jump Jive And Wail
TTITLE13=Frankfurt Special
EXTD=YEAR: 2003
EXTT0=
EXTT1=
EXTT2=
EXTT3=
EXTT4=
EXTT5=
EXTT6=
EXTT7=
EXTT8=
EXTT9=
EXTT10=
EXTT11=
EXTT12=
EXTT13=
PLAYORDER=
